<svg width="17" height="17" viewBox="0 0 17 17" fill="none" xmlns="http://www.w3.org/2000/svg">
<path d="M8.5 0C6.02401 0 4 2.024 4 4.5C4 6.976 6.02401 9 8.5 9C10.976 9 13 6.976 13 4.5C13 2.024 10.976 0 8.5 0Z" fill="#54546B"/>
<path d="M15.9679 12.2701C15.8539 11.9757 15.702 11.7009 15.531 11.4458C14.657 10.1112 13.308 9.228 11.7881 9.01211C11.5981 8.9925 11.3891 9.03172 11.2371 9.14949C10.4391 9.75791 9.48917 10.0719 8.50118 10.0719C7.51318 10.0719 6.56323 9.75791 5.76524 9.14949C5.61323 9.03172 5.40424 8.97286 5.21426 9.01211C3.6943 9.228 2.32635 10.1112 1.47139 11.4458C1.30039 11.7009 1.14838 11.9953 1.03441 12.2701C0.977427 12.3879 0.99641 12.5252 1.0534 12.643C1.20541 12.9178 1.39538 13.1926 1.56638 13.4281C1.83236 13.801 2.11736 14.1346 2.44036 14.4486C2.70634 14.7234 3.01033 14.9785 3.31435 15.2337C4.81529 16.3916 6.62025 17 8.48219 17C10.3441 17 12.1491 16.3916 13.65 15.2337C13.954 14.9982 14.258 14.7234 14.524 14.4486C14.828 14.1346 15.132 13.8009 15.398 13.4281C15.588 13.1729 15.759 12.9178 15.911 12.643C16.0059 12.5252 16.0249 12.3878 15.9679 12.2701Z" fill="#54546B"/>
</svg>
